<?xml version="1.0" encoding="iso-8859-1"?>
<!-- Generator: Adobe Illustrator 19.0.0, SVG Export Plug-In . SVG Version: 6.00 Build 0)  -->
<svg version="1.1" id="Layer_1" xmlns="http://www.w3.org/2000/svg" xmlns:xlink="http://www.w3.org/1999/xlink" x="0px" y="0px"
	 viewBox="0 0 512 512" style="enable-background:new 0 0 512 512;" xml:space="preserve">
<rect y="0.006" style="fill:#FCD577;" width="512" height="511.987"/>
<path style="fill:#EAC36E;" d="M512,0.006h-15.443l-59.888,59.901L376.769,0.006h-25.093l-59.901,59.901L231.862,0.006h-25.093
	l-59.901,59.901L86.967,0.006H61.874L0,61.881v23.248l61.746,61.733L0,208.608v27.195l75.331-75.343l40.792,40.792l18.07,18.07
	L0,353.515v23.248l61.746,61.746L0,500.242v11.752h15.43l59.913-59.901l59.901,59.901h25.093l59.901-59.901l59.901,59.901h25.093
	l59.901-59.901l59.901,59.901h25.093L512,450.119v-23.248l-61.733-61.733L512,303.392v-27.195l-75.331,75.344l-58.862-58.862
	L512,158.498v-23.26l-61.733-61.733L512,11.758L512,0.006L512,0.006z M219.315,14.655l58.863,58.85l73.357,73.37l-58.85,58.85
	l-72.447-72.447l-59.772-59.772L219.315,14.655z M127.439,185.385l-38.511-38.524l-6.639-6.651l-6.946-6.946l-59.772-59.76
	l58.85-58.85l24.35,24.337l107.87,107.883l-28.079,28.079l-30.77,30.77L127.439,185.385z M109.485,271.212l110.753-110.753
	l58.85,58.863l-132.22,132.22l-58.85-58.85L109.485,271.212z M147.791,497.358l-132.22-132.22l58.85-58.862l72.447,72.447
	l59.772,59.772L147.791,497.358z M292.685,497.358l-132.22-132.22l39.165-39.178l19.685-19.685l132.22,132.22L292.685,497.358z
	 M423.072,365.138l73.37,73.357l-58.862,58.862l-132.22-132.22l58.863-58.863L423.072,365.138z M364.222,279.094l-72.46,72.447
	l-16.314-16.327l-42.535-42.535l73.37-73.357l58.85-58.863l58.862,58.863L364.222,279.094z M496.442,146.874l-58.862,58.85
	l-45.291-45.303l-27.156-27.144L305.36,73.504l58.85-58.85L496.442,146.874z"/>
<g>
</g>
<g>
</g>
<g>
</g>
<g>
</g>
<g>
</g>
<g>
</g>
<g>
</g>
<g>
</g>
<g>
</g>
<g>
</g>
<g>
</g>
<g>
</g>
<g>
</g>
<g>
</g>
<g>
</g>
</svg>
