<?xml version="1.0" encoding="iso-8859-1"?>
<!-- Generator: Adobe Illustrator 19.0.0, SVG Export Plug-In . SVG Version: 6.00 Build 0)  -->
<svg version="1.1" id="Layer_1" xmlns="http://www.w3.org/2000/svg" xmlns:xlink="http://www.w3.org/1999/xlink" x="0px" y="0px"
	 viewBox="0 0 512 512" style="enable-background:new 0 0 512 512;" xml:space="preserve">
<path style="fill:#F63341;" d="M502.388,186.283C472.029,78.782,373.217,0,256,0C114.616,0,0,114.616,0,256
	c0,117.217,78.782,216.029,186.283,246.388L502.388,186.283z"/>
<path style="fill:#A72B1A;" d="M512,256c0-24.168-3.354-47.551-9.612-69.717l-88.336-88.336L97.948,414.052l88.336,88.336
	C208.447,508.647,231.832,512,256,512C397.384,512,512,397.384,512,256z"/>
<polygon style="fill:#F97D85;" points="256,224.519 130.074,381.926 137.944,405.537 161.555,413.408 318.964,287.481 "/>
<polygon style="fill:#F85C67;" points="303.223,303.223 413.408,161.555 405.537,137.944 381.926,130.074 240.259,240.259 "/>
<polygon style="fill:#F97D85;" points="318.964,287.481 223.874,414.052 286.838,414.052 381.926,350.445 "/>
<g>
	<polygon style="fill:#F85C67;" points="303.223,303.223 366.186,366.186 414.052,286.838 414.052,223.874 	"/>
	<polygon style="fill:#F85C67;" points="381.926,350.445 349.801,414.052 412.764,414.052 413.408,413.408 	"/>
</g>
<g>
	<polygon style="fill:#FCBEC2;" points="97.948,97.948 97.948,99.236 99.236,97.948 	"/>
	<polygon style="fill:#FCBEC2;" points="193.037,318.964 161.555,256 97.948,351.09 97.948,414.052 	"/>
	<polygon style="fill:#FCBEC2;" points="318.964,193.037 414.052,97.948 351.09,97.948 256,161.555 	"/>
</g>
<rect x="199.001" y="143.351" transform="matrix(-0.7071 -0.7071 0.7071 -0.7071 232.3917 561.0462)" style="fill:#FEF2CC;" width="66.782" height="178.085"/>
<polygon style="fill:#F97D85;" points="413.408,413.408 414.052,412.764 414.052,349.801 366.186,366.186 "/>
<polygon style="fill:#FCBEC2;" points="414.052,412.764 412.764,414.052 414.052,414.052 "/>
<polygon style="fill:#F63341;" points="414.052,349.801 414.052,286.838 286.838,414.052 349.801,414.052 "/>
<polygon style="fill:#F97D85;" points="350.445,224.519 381.926,256 414.052,223.874 414.052,160.912 "/>
<polygon style="fill:#FCBEC2;" points="224.519,350.445 160.912,414.052 223.874,414.052 256,381.926 "/>
<rect x="214.184" y="280.966" transform="matrix(-0.7071 0.7071 -0.7071 -0.7071 732.0543 303.226)" style="fill:#F63341;" width="178.085" height="44.521"/>
<polygon style="fill:#F85C67;" points="130.074,381.926 97.948,414.052 160.912,414.052 161.555,413.408 "/>
<polygon style="fill:#F97D85;" points="413.408,161.555 414.052,160.912 414.052,97.948 381.926,130.074 "/>
<polygon style="fill:#F85C67;" points="224.519,224.519 193.037,161.555 97.948,288.126 97.948,351.09 "/>
<polygon style="fill:#F97D85;" points="177.296,177.296 224.519,224.519 351.09,97.948 288.126,97.948 "/>
<polygon style="fill:#F85C67;" points="185.167,169.425 122.203,106.463 97.948,162.199 97.948,225.163 "/>
<polygon style="fill:#F97D85;" points="177.296,177.296 225.163,97.948 162.199,97.948 114.333,114.333 "/>
<g>
	<polygon style="fill:#FCBEC2;" points="162.199,97.948 99.236,97.948 97.948,99.236 97.948,162.199 	"/>
	
		<rect x="88.252" y="155.036" transform="matrix(-0.7071 0.7071 -0.7071 -0.7071 428.0281 177.2983)" style="fill:#FCBEC2;" width="178.085" height="44.521"/>
</g>
<polygon style="fill:#F97D85;" points="98.592,224.519 97.948,225.163 97.948,288.126 130.074,256 "/>
<polygon style="fill:#FEF2CC;" points="256,130.074 288.126,97.948 225.163,97.948 224.519,98.592 "/>
<g>
</g>
<g>
</g>
<g>
</g>
<g>
</g>
<g>
</g>
<g>
</g>
<g>
</g>
<g>
</g>
<g>
</g>
<g>
</g>
<g>
</g>
<g>
</g>
<g>
</g>
<g>
</g>
<g>
</g>
</svg>
