<?xml version="1.0" encoding="iso-8859-1"?>
<!-- Generator: Adobe Illustrator 18.0.0, SVG Export Plug-In . SVG Version: 6.00 Build 0)  -->
<!DOCTYPE svg PUBLIC "-//W3C//DTD SVG 1.1//EN" "http://www.w3.org/Graphics/SVG/1.1/DTD/svg11.dtd">
<svg version="1.1" id="Capa_1" xmlns="http://www.w3.org/2000/svg" xmlns:xlink="http://www.w3.org/1999/xlink" x="0px" y="0px"
	 viewBox="0 0 199.27 199.27" style="enable-background:new 0 0 199.27 199.27;" xml:space="preserve">
<g>
	<path d="M99.568,47.971c13.225,0,23.983-10.76,23.983-23.984C123.552,10.76,112.793,0,99.568,0S75.584,10.76,75.584,23.986
		C75.584,37.211,86.344,47.971,99.568,47.971z M99.568,15c4.953,0,8.983,4.031,8.983,8.986c0,4.954-4.03,8.984-8.983,8.984
		c-4.954,0-8.984-4.03-8.984-8.984C90.584,19.031,94.614,15,99.568,15z"/>
	<path d="M122.951,152.469v-23.484c5.331-4.412,8.5-10.99,8.5-18.059v-33.23c0-12.935-10.522-23.457-23.455-23.457H91.273
		c-12.934,0-23.455,10.522-23.455,23.457v33.23c0,7.069,3.168,13.646,8.497,18.059l0.003,23.487
		c-21.235,1.914-49.852,7.371-49.852,22.886c0,22.759,60.975,23.912,73.197,23.912c12.213,0,73.139-1.153,73.139-23.912
		C172.803,159.833,144.187,154.379,122.951,152.469z M99.664,184.27c-30.98,0-50.509-5.23-56.713-8.891
		c4.187-2.426,14.889-6.021,33.37-7.837l0.001,7.814c0.001,4.143,3.359,7.5,7.501,7.499c4.143-0.001,7.5-3.359,7.499-7.501
		l-0.008-50.328c0-2.771-1.528-5.315-3.973-6.618c-2.79-1.486-4.523-4.354-4.523-7.482v-33.23c0-4.663,3.793-8.457,8.455-8.457
		h16.723c4.662,0,8.455,3.794,8.455,8.457v33.23c0,3.127-1.734,5.994-4.527,7.482c-2.445,1.304-3.973,3.849-3.973,6.619v50.328
		c0,4.143,3.357,7.5,7.5,7.5s7.5-3.357,7.5-7.5v-7.816c18.495,1.813,29.198,5.413,33.376,7.84
		C150.141,179.038,130.63,184.27,99.664,184.27z"/>
</g>
<g>
</g>
<g>
</g>
<g>
</g>
<g>
</g>
<g>
</g>
<g>
</g>
<g>
</g>
<g>
</g>
<g>
</g>
<g>
</g>
<g>
</g>
<g>
</g>
<g>
</g>
<g>
</g>
<g>
</g>
</svg>
